<?xml version="1.0" standalone="no"?>
<!DOCTYPE svg PUBLIC "-//W3C//DTD SVG 20010904//EN"
 "http://www.w3.org/TR/2001/REC-SVG-20010904/DTD/svg10.dtd">
<svg version="1.0" xmlns="http://www.w3.org/2000/svg"
 width="512.000000pt" height="512.000000pt" viewBox="0 0 512.000000 512.000000"
 preserveAspectRatio="xMidYMid meet">

<g transform="translate(0.000000,512.000000) scale(0.100000,-0.100000)"
fill="currentColor" stroke="none">
<path d="M920 4834 c-162 -43 -309 -165 -379 -315 -22 -46 -44 -111 -50 -143
-15 -84 -15 -3548 0 -3632 38 -208 212 -397 419 -453 73 -21 95 -21 1223 -21
1277 0 1203 -4 1342 68 91 47 198 154 243 242 66 132 65 124 69 677 l4 502
282 3 282 3 65 31 c83 39 145 101 184 184 l31 65 3 920 c2 896 2 921 -18 985
-24 78 -79 154 -144 197 -85 58 -120 63 -416 63 l-267 0 -7 78 c-14 166 -64
280 -171 388 -45 45 -95 83 -140 106 -139 72 -64 68 -1346 67 -975 0 -1163 -3
-1209 -15z m2401 -332 c31 -16 68 -46 86 -70 67 -88 63 34 63 -1872 0 -1894 4
-1781 -59 -1868 -17 -22 -52 -53 -78 -69 l-48 -28 -1138 -3 -1138 -2 -50 21
c-29 13 -66 40 -89 66 -76 86 -70 -65 -70 1883 0 1940 -5 1795 67 1880 21 24
60 53 87 66 l51 24 1131 0 1132 0 53 -28z m983 -628 c14 -14 16 -108 16 -886
0 -797 -1 -873 -17 -890 -15 -16 -37 -18 -265 -18 l-248 0 0 905 0 905 249 0
c214 0 252 -2 265 -16z"/>
<path d="M1200 4188 c-18 -13 -43 -36 -54 -51 -21 -28 -21 -37 -21 -512 0
-473 0 -484 21 -511 11 -15 33 -37 48 -48 27 -21 36 -21 927 -24 880 -2 900
-2 938 18 21 10 50 36 62 57 l24 38 3 460 3 460 -23 45 c-13 25 -38 55 -57 67
l-34 23 -902 0 -902 0 -33 -22z m1630 -563 l0 -265 -695 0 -695 0 0 265 0 265
695 0 695 0 0 -265z"/>
<path d="M1330 2709 c-14 -6 -36 -20 -48 -32 -78 -72 -68 -185 21 -251 27 -20
40 -21 297 -21 257 0 270 1 297 21 98 73 98 195 0 268 -27 20 -42 21 -285 23
-157 1 -267 -2 -282 -8z"/>
<path d="M2376 2698 c-109 -63 -106 -222 6 -279 37 -19 55 -20 298 -17 243 3
260 4 286 24 53 39 69 71 69 134 0 63 -16 95 -69 134 -26 20 -43 21 -289 24
-256 2 -263 2 -301 -20z"/>
<path d="M1330 2069 c-14 -6 -36 -20 -48 -32 -78 -72 -68 -185 21 -251 27 -20
40 -21 297 -21 257 0 270 1 297 21 98 73 98 195 0 268 -27 20 -42 21 -285 23
-157 1 -267 -2 -282 -8z"/>
<path d="M2376 2058 c-109 -63 -106 -222 6 -279 37 -19 55 -20 298 -17 243 3
260 4 286 24 53 39 69 71 69 134 0 63 -16 95 -69 134 -26 20 -43 21 -289 24
-256 2 -263 2 -301 -20z"/>
<path d="M1330 1429 c-14 -6 -36 -20 -48 -32 -78 -72 -68 -185 21 -251 27 -20
40 -21 297 -21 257 0 270 1 297 21 98 73 98 195 0 268 -27 20 -42 21 -285 23
-157 1 -267 -2 -282 -8z"/>
<path d="M2376 1418 c-109 -63 -106 -222 6 -279 37 -19 55 -20 298 -17 243 3
260 4 286 24 53 39 69 71 69 134 0 63 -16 95 -69 134 -26 20 -43 21 -289 24
-256 2 -263 2 -301 -20z"/>
</g>
</svg>
